<svg xmlns="http://www.w3.org/2000/svg" viewBox="0 0 37.65 47.06"><defs><style>.cls-1{fill:#fbb03b;}</style></defs><g id="Layer_2" data-name="Layer 2"><g id="Layer_1-2" data-name="Layer 1"><path class="cls-1" d="M24.71,37.06a2.84,2.84,0,0,0,2.09-.85,3,3,0,0,0,0-4.18,3,3,0,1,0-2.09,5Zm-11.89-.35L27.3,22.24l-2.47-2.47L10.35,34.24Zm.12-11.41a2.92,2.92,0,0,0,2.94-2.95A2.81,2.81,0,0,0,15,20.27a3,3,0,0,0-4.18,0,3,3,0,0,0,0,4.17A2.85,2.85,0,0,0,12.94,25.3Zm5.88,21.76A18,18,0,0,1,5.38,41.53,18.92,18.92,0,0,1,0,27.77Q0,21.88,4.68,15T18.82,0Q28.3,8.06,33,15t4.68,12.8a18.92,18.92,0,0,1-5.38,13.76A18,18,0,0,1,18.82,47.06Zm0-3.53a14.61,14.61,0,0,0,11-4.5,15.55,15.55,0,0,0,4.35-11.26q0-4.65-3.91-10.56A65.26,65.26,0,0,0,18.82,4.71,65.5,65.5,0,0,0,7.44,17.21Q3.53,23.12,3.53,27.77A15.55,15.55,0,0,0,7.88,39,14.58,14.58,0,0,0,18.82,43.53Z"/></g></g></svg>