<svg xmlns="http://www.w3.org/2000/svg" viewBox="0 0 47.06 46.92"><defs><style>.cls-1{fill:#fbb03b;}</style></defs><g id="Layer_2" data-name="Layer 2"><g id="Layer_1-2" data-name="Layer 1"><path class="cls-1" d="M18.09,45.73a1.92,1.92,0,0,1,.09-1.38l4.06-8.12a1.58,1.58,0,0,1,1-.88,1.87,1.87,0,0,1,1.38,0,1.53,1.53,0,0,1,.85,1,2,2,0,0,1-.09,1.39l-4.06,8.11a1.57,1.57,0,0,1-1,.89,1.92,1.92,0,0,1-1.38-.06A1.53,1.53,0,0,1,18.09,45.73ZM4,45.67a1.92,1.92,0,0,1,.09-1.38l4.06-8.12a1.58,1.58,0,0,1,1-.88,1.82,1.82,0,0,1,1.38.06,1.47,1.47,0,0,1,.85,1,1.94,1.94,0,0,1-.09,1.39l-4,8.12a1.63,1.63,0,0,1-1,.88,1.9,1.9,0,0,1-1.39-.06A1.53,1.53,0,0,1,4,45.67Zm28.21,0a1.75,1.75,0,0,1,.06-1.35l4.06-8.18a1.49,1.49,0,0,1,1-.85,2,2,0,0,1,1.38.08,1.63,1.63,0,0,1,.88,1,1.85,1.85,0,0,1-.06,1.39l-4.06,8.11a1.5,1.5,0,0,1-1,.86,2,2,0,0,1-1.38-.09A1.62,1.62,0,0,1,32.18,45.7ZM10,31.77a9.61,9.61,0,0,1-7.09-2.94A9.7,9.7,0,0,1,0,21.77a9.67,9.67,0,0,1,2.74-6.86,10.37,10.37,0,0,1,7.38-3.14,14.38,14.38,0,0,1,4.44-8.39,12.65,12.65,0,0,1,9-3.38,13,13,0,0,1,7,1.91,14.38,14.38,0,0,1,5,5.21,11.94,11.94,0,0,1,8.27,4,12.19,12.19,0,0,1,3,11.4,9.89,9.89,0,0,1-1.79,3.91,12.24,12.24,0,0,1-10.21,5.34ZM40.84,26a8.62,8.62,0,0,0,2.95-7.2,8.47,8.47,0,0,0-2-5,8.83,8.83,0,0,0-6.67-3.22H33.45L33,9.53A9.54,9.54,0,0,0,29.3,5.15a9.89,9.89,0,0,0-5.5-1.62,9.64,9.64,0,0,0-7.08,2.91,9.63,9.63,0,0,0-2.92,7.09V15.3H10.27a6.2,6.2,0,0,0-4.58,1.88,6.48,6.48,0,0,0,0,9.15,6.19,6.19,0,0,0,4.58,1.91H34.72A9.1,9.1,0,0,0,40.84,26Z"/></g></g></svg>