<svg xmlns="http://www.w3.org/2000/svg" viewBox="0 0 42.36 42.36"><defs><style>.cls-1{fill:#fff;}</style></defs><g id="Layer_2" data-name="Layer 2"><g id="Layer_1-2" data-name="Layer 1"><path class="cls-1" d="M39.77,42.36,24.3,26.88a13,13,0,0,1-4.12,2.39,14.55,14.55,0,0,1-5,.85A14.65,14.65,0,0,1,4.41,25.71,14.51,14.51,0,0,1,0,15.06,14.51,14.51,0,0,1,4.41,4.41,14.58,14.58,0,0,1,15.12,0,14.41,14.41,0,0,1,25.74,4.41a14.56,14.56,0,0,1,4.38,10.65,14.88,14.88,0,0,1-.82,4.88,15.07,15.07,0,0,1-2.47,4.41L42.36,39.77ZM15.12,26.59a11,11,0,0,0,8.12-3.38,11.18,11.18,0,0,0,3.35-8.15,11.18,11.18,0,0,0-3.35-8.15,11,11,0,0,0-8.12-3.38A11.2,11.2,0,0,0,6.91,6.91a11.13,11.13,0,0,0-3.38,8.15,11.13,11.13,0,0,0,3.38,8.15A11.2,11.2,0,0,0,15.12,26.59Z"/></g></g></svg>