<svg xmlns="http://www.w3.org/2000/svg" viewBox="0 0 20.95 41.43"><defs><style>.cls-1{fill:#fbb03b;}</style></defs><g id="Layer_2" data-name="Layer 2"><g id="Layer_1-2" data-name="Layer 1"><path class="cls-1" d="M10.47,41.43a10.08,10.08,0,0,1-7.39-3.07A10.11,10.11,0,0,1,0,31a10.61,10.61,0,0,1,1.38-5.24,10.8,10.8,0,0,1,3.8-4V5.44a5.41,5.41,0,0,1,1.28-3.6A5.17,5.17,0,0,1,10.25,0a5.41,5.41,0,0,1,4.07,1.67,5,5,0,0,1,1.45,3.62V21.75a10.8,10.8,0,0,1,3.8,4A10.61,10.61,0,0,1,21,31a10.11,10.11,0,0,1-3.08,7.4A10.09,10.09,0,0,1,10.47,41.43Zm0-4.11a6.4,6.4,0,0,0,4.69-2.07,6.54,6.54,0,0,0,2-4.71,7.88,7.88,0,0,0-1.05-3.84A5.8,5.8,0,0,0,13.34,24l-1.1-.5V5.94a1.79,1.79,0,0,0-3-1.27,1.68,1.68,0,0,0-.5,1.27V23.53l-1.1.5A5.86,5.86,0,0,0,4.79,26.7a7.87,7.87,0,0,0-1,3.84,6.54,6.54,0,0,0,2,4.71A6.39,6.39,0,0,0,10.47,37.32Z"/></g></g></svg>