<svg xmlns="http://www.w3.org/2000/svg" viewBox="0 0 47.62 40.53"><defs><style>.cls-1{fill:#fbb03b;}</style></defs><g id="Layer_2" data-name="Layer 2"><g id="Layer_1-2" data-name="Layer 1"><path class="cls-1" d="M23.43,40.53a7.51,7.51,0,0,1-5.2-1.71,6.55,6.55,0,0,1-1.92-5.17h4.87a3.77,3.77,0,0,0,.72,2.49,3,3,0,0,0,2.37.85,3.22,3.22,0,0,0,2.42-.76,3.63,3.63,0,0,0,.73-2.58A4,4,0,0,0,26.69,31a3,3,0,0,0-2.42-.85H0V26.59H23.43a6.79,6.79,0,0,1,5,1.7c1.14,1.14,1.7,2.92,1.7,5.36s-.56,4-1.7,5.17A6.76,6.76,0,0,1,23.43,40.53ZM0,16V12.47H32.24a4.23,4.23,0,0,0,3.17-1,4.81,4.81,0,0,0,1-3.44,4.83,4.83,0,0,0-1-3.44,4.23,4.23,0,0,0-3.17-1A4,4,0,0,0,29,4.74a4.61,4.61,0,0,0-1,3H24.47a7.81,7.81,0,0,1,2.06-5.59A7.49,7.49,0,0,1,32.24,0a7.56,7.56,0,0,1,5.64,2.09A8,8,0,0,1,39.94,8a8,8,0,0,1-2.06,5.91A7.56,7.56,0,0,1,32.24,16ZM40,35.3V31.77a3.85,3.85,0,0,0,3.07-1.15,5,5,0,0,0,1-3.32A4.21,4.21,0,0,0,43,24.06a4.59,4.59,0,0,0-3.19-1H0V19.53H39.76a7.89,7.89,0,0,1,5.78,2.06,7.65,7.65,0,0,1,2.08,5.71,8.31,8.31,0,0,1-2,5.88A7.35,7.35,0,0,1,40,35.3Z"/></g></g></svg>